<svg width="72" height="72" viewBox="0 0 72 72" fill="none" xmlns="http://www.w3.org/2000/svg">
<circle cx="36" cy="36" r="36" fill="#1E3D78"/>
<path fill-rule="evenodd" clip-rule="evenodd" d="M16 33.2669L19.1365 35.9553L21.8249 32.2588L23.7929 38.888C22.375 38.6668 20.9085 38.8305 19.5531 39.384L16.0361 40.8201V45.4393L19.5168 44.1084C21.6487 43.2933 24.017 43.3057 26.1427 44.1368C28.2786 44.9719 30.66 44.9756 32.7959 44.1404C34.9319 43.3053 37.3071 43.3066 39.4431 44.1417C41.575 44.9752 43.9458 44.9764 46.0777 44.1429C48.2171 43.3064 50.5936 43.3095 52.7309 44.1514L56 45.4393V41.2431L52.9159 39.7478L48.7089 24.7536L53.0776 26.5459L54.5144 23.0148L31.6824 14L16 33.2669ZM48.5797 38.9347L44.4523 23.1854L32.5785 18.9288L25.0734 28.4502L28.3589 40.3207C29.8554 40.5407 31.4019 40.3153 32.7959 39.6445C33.2732 39.4148 33.7685 39.2375 34.2737 39.1123L32.1906 32.4888L40.0145 30.3403L42.693 40.4027C43.8502 40.4133 45.0092 40.1617 46.0777 39.6475C46.8745 39.2641 47.7211 39.0265 48.5797 38.9347ZM19.5531 48.5756L16.0361 50.0117V54.6309L19.5168 53.3C21.6487 52.4849 24.017 52.4974 26.1427 53.3285C28.2786 54.1636 30.66 54.1672 32.7959 53.3321C34.9319 52.497 37.3071 52.4982 39.4431 53.3333C41.575 54.1668 43.9458 54.1681 46.0777 53.3345C48.2171 52.4981 50.5936 52.5011 52.7309 53.3431L56 54.6309V50.4347L52.7295 48.849C50.6298 47.831 48.1803 47.8274 46.0777 48.8391C43.9822 49.8475 41.5386 49.846 39.4431 48.8376C37.3436 47.8274 34.8954 47.8259 32.7959 48.8361C30.6965 49.8464 28.2514 49.8464 26.1519 48.8361L26.0194 48.7723C23.9888 47.7952 21.6393 47.7237 19.5531 48.5756Z" fill="white"/>
</svg>
