<svg width="129" height="38" viewBox="0 0 129 38" fill="none" xmlns="http://www.w3.org/2000/svg">
<path d="M99.3745 37.0734H76.6438V1.18469H99.3745V8.36243H86.4211V15.5402H98.5738V22.7179H86.4211V29.8956H99.3745V37.0734Z" fill="white"/>
<path d="M129 25.9997C129 27.9329 128.528 29.7662 127.585 31.4994C126.676 33.2327 125.174 34.6493 123.077 35.7492C120.981 36.8158 118.203 37.3491 114.744 37.3491C112.927 37.3491 111.389 37.2658 110.131 37.0992C108.908 36.9658 107.79 36.7325 106.777 36.3992C105.764 36.0659 104.645 35.6326 103.422 35.0993V26.4997C105.449 27.4663 107.476 28.2162 109.502 28.7496C111.529 29.2495 113.276 29.4995 114.744 29.4995C115.512 29.4995 116.159 29.3829 116.683 29.1495C117.207 28.9162 117.591 28.5996 117.836 28.1996C118.116 27.7996 118.255 27.3496 118.255 26.8496C118.255 26.2163 118.098 25.683 117.784 25.2497C117.469 24.8164 116.875 24.3664 116.002 23.8998C115.128 23.4331 113.853 22.8665 112.175 22.1999C110.603 21.5666 109.258 20.9166 108.14 20.25C107.056 19.5833 106.183 18.8334 105.519 18.0001C104.855 17.1668 104.366 16.2001 104.051 15.1002C103.737 13.9669 103.58 12.6336 103.58 11.1004C103.58 8.80049 104.174 6.88392 105.362 5.35066C106.585 3.78406 108.244 2.61745 110.341 1.85082C112.438 1.05086 114.849 0.650879 117.574 0.650879C120.16 0.650879 122.413 0.917534 124.335 1.45084C126.292 1.95082 126.362 2.53412 127.585 3.20076V12.1503C126.187 11.4504 123.025 9.40047 121.453 9.00048C119.88 8.56717 118.483 8.35051 117.26 8.35051C116.526 8.35051 115.932 8.45051 115.477 8.6505C115.023 8.85049 114.691 9.13381 114.482 9.50046C114.272 9.83378 114.167 10.2171 114.167 10.6504C114.167 11.217 114.359 11.717 114.744 12.1503C115.163 12.5836 115.879 13.067 116.893 13.6003C117.941 14.1002 119.391 14.7835 121.243 15.6502C122.92 16.3835 124.335 17.2001 125.488 18.1001C126.641 19 127.515 20.0833 128.109 21.3499C128.703 22.5832 129 24.1331 129 25.9997Z" fill="white"/>
<path d="M73.3966 25.9997C73.3966 27.9329 72.9248 29.7662 71.9814 31.4994C71.0729 33.2327 69.5704 34.6493 67.4739 35.7492C65.3774 36.8158 62.5995 37.3491 59.1402 37.3491C57.3232 37.3491 55.7858 37.2658 54.5278 37.0992C53.3049 36.9658 52.1867 36.7325 51.1734 36.3992C50.1601 36.0659 49.0419 35.6326 47.819 35.0993V26.4997C49.8456 27.4663 51.8722 28.2162 53.8989 28.7496C55.9255 29.2495 57.6726 29.4995 59.1402 29.4995C59.9089 29.4995 60.5554 29.3829 61.0795 29.1495C61.6036 28.9162 61.988 28.5996 62.2326 28.1996C62.5121 27.7996 62.6519 27.3496 62.6519 26.8496C62.6519 26.2163 62.4946 25.683 62.1802 25.2497C61.8657 24.8164 61.2717 24.3664 60.3981 23.8998C59.5246 23.4331 58.2492 22.8665 56.572 22.1999C54.9996 21.5666 53.6543 20.9166 52.5361 20.25C51.4529 19.5833 50.5794 18.8334 49.9155 18.0001C49.2516 17.1668 48.7624 16.2001 48.4479 15.1002C48.1334 13.9669 47.9762 12.6336 47.9762 11.1004C47.9762 8.80049 48.5702 6.88392 49.7583 5.35066C50.9812 3.78406 52.641 2.61745 54.7375 1.85082C56.834 1.05086 59.245 0.650879 61.9705 0.650879C64.5562 0.650879 66.81 0.917534 68.7318 1.45084C70.6885 1.95082 70.7584 2.53412 71.9814 3.20076V12.1503C70.5837 11.4504 67.4215 9.40047 65.8491 9.00048C64.2767 8.56717 62.879 8.35051 61.656 8.35051C60.9222 8.35051 60.3282 8.45051 59.874 8.6505C59.4197 8.85049 59.0878 9.13381 58.8781 9.50046C58.6685 9.83378 58.5637 10.2171 58.5637 10.6504C58.5637 11.217 58.7558 11.717 59.1402 12.1503C59.5595 12.5836 60.2758 13.067 61.2891 13.6003C62.3374 14.1002 63.7875 14.7835 65.6394 15.6502C67.3166 16.3835 68.7318 17.2001 69.8849 18.1001C71.038 19 71.9115 20.0833 72.5055 21.3499C73.0995 22.5832 73.3966 24.1331 73.3966 25.9997Z" fill="white"/>
<path fill-rule="evenodd" clip-rule="evenodd" d="M0 0.650879H12.2328V12.8836H0V0.650879ZM0 25.1163H12.2328V37.349H0V25.1163ZM24.4656 12.8837H12.2328V25.1165H24.4655V37.349H36.6983V25.1163H24.4656V12.8837ZM24.4655 0.650886H36.6983V12.8836H24.4655V0.650886Z" fill="#F48703"/>
<rect x="41.1466" y="0.650879" width="1.11207" height="36.6983" fill="white"/>
</svg>
