<svg width="48" height="48" viewBox="0 0 48 48" fill="none" xmlns="http://www.w3.org/2000/svg">
<path d="M0 24C0 10.7452 10.7452 0 24 0C37.2548 0 48 10.7452 48 24C48 37.2548 37.2548 48 24 48C10.7452 48 0 37.2548 0 24Z" fill="white"/>
<path d="M20.7164 36L20.2388 32.16C19.9801 32.06 19.7363 31.94 19.5075 31.8C19.2786 31.66 19.0547 31.51 18.8358 31.35L15.2836 32.85L12 27.15L15.0746 24.81C15.0547 24.67 15.0448 24.535 15.0448 24.405V23.595C15.0448 23.465 15.0547 23.33 15.0746 23.19L12 20.85L15.2836 15.15L18.8358 16.65C19.0547 16.49 19.2836 16.34 19.5224 16.2C19.7612 16.06 20 15.94 20.2388 15.84L20.7164 12H27.2836L27.7612 15.84C28.0199 15.94 28.2637 16.06 28.4925 16.2C28.7214 16.34 28.9453 16.49 29.1642 16.65L32.7164 15.15L36 20.85L32.9254 23.19C32.9453 23.33 32.9552 23.465 32.9552 23.595V24.405C32.9552 24.535 32.9353 24.67 32.8955 24.81L35.9701 27.15L32.6866 32.85L29.1642 31.35C28.9453 31.51 28.7164 31.66 28.4776 31.8C28.2388 31.94 28 32.06 27.7612 32.16L27.2836 36H20.7164ZM22.806 33.6H25.1642L25.5821 30.42C26.199 30.26 26.7711 30.025 27.2985 29.715C27.8259 29.405 28.3085 29.03 28.7463 28.59L31.7015 29.82L32.8657 27.78L30.2985 25.83C30.398 25.55 30.4677 25.255 30.5075 24.945C30.5473 24.635 30.5672 24.32 30.5672 24C30.5672 23.68 30.5473 23.365 30.5075 23.055C30.4677 22.745 30.398 22.45 30.2985 22.17L32.8657 20.22L31.7015 18.18L28.7463 19.44C28.3085 18.98 27.8259 18.595 27.2985 18.285C26.7711 17.975 26.199 17.74 25.5821 17.58L25.194 14.4H22.8358L22.4179 17.58C21.801 17.74 21.2289 17.975 20.7015 18.285C20.1741 18.595 19.6915 18.97 19.2537 19.41L16.2985 18.18L15.1343 20.22L17.7015 22.14C17.602 22.44 17.5323 22.74 17.4925 23.04C17.4527 23.34 17.4328 23.66 17.4328 24C17.4328 24.32 17.4527 24.63 17.4925 24.93C17.5323 25.23 17.602 25.53 17.7015 25.83L15.1343 27.78L16.2985 29.82L19.2537 28.56C19.6915 29.02 20.1741 29.405 20.7015 29.715C21.2289 30.025 21.801 30.26 22.4179 30.42L22.806 33.6ZM24.0597 28.2C25.2139 28.2 26.199 27.79 27.0149 26.97C27.8308 26.15 28.2388 25.16 28.2388 24C28.2388 22.84 27.8308 21.85 27.0149 21.03C26.199 20.21 25.2139 19.8 24.0597 19.8C22.8856 19.8 21.8955 20.21 21.0896 21.03C20.2836 21.85 19.8806 22.84 19.8806 24C19.8806 25.16 20.2836 26.15 21.0896 26.97C21.8955 27.79 22.8856 28.2 24.0597 28.2Z" fill="#1E3D78"/>
</svg>
