<svg width="36" height="36" viewBox="0 0 36 36" fill="none" xmlns="http://www.w3.org/2000/svg">
<rect width="36" height="36" rx="18" fill="white"/>
<path fill-rule="evenodd" clip-rule="evenodd" d="M18.9904 13.3778L15.4825 11.3866C14.1492 10.6297 12.4952 11.5927 12.4952 13.1259V13.3778L8.98732 11.3866C7.65404 10.6297 6 11.5927 6 13.1259V23.1105C6 24.6436 7.65404 25.6067 8.98732 24.8498L12.4952 22.8586V23.1105C12.4952 24.6436 14.1492 25.6067 15.4825 24.8498L18.9904 22.8586V23.1105C18.9904 24.6436 20.6445 25.6067 21.9777 24.8498L30.7725 19.8575C32.1227 19.091 32.1227 17.1453 30.7725 16.3789L21.9777 11.3866C20.6445 10.6297 18.9904 11.5927 18.9904 13.1259V13.3778Z" fill="#F48703"/>
</svg>
