<svg width="36" height="36" viewBox="0 0 36 36" fill="none" xmlns="http://www.w3.org/2000/svg">
<rect width="36" height="36" rx="18" fill="#F48703"/>
<path fill-rule="evenodd" clip-rule="evenodd" d="M6.5547 25.0967L13 20.7998V24.2646C13 25.0633 13.8901 25.5397 14.5547 25.0967L21 20.7998V24.2646C21 25.0633 21.8901 25.5397 22.5547 25.0967L31.7519 18.9652C32.3457 18.5694 32.3457 17.6969 31.7519 17.3011L22.5547 11.1696C21.8901 10.7266 21 11.203 21 12.0017V15.4665L14.5547 11.1696C13.8901 10.7266 13 11.203 13 12.0017V15.4665L6.5547 11.1696C5.89015 10.7266 5 11.203 5 12.0017V24.2646C5 25.0633 5.89014 25.5397 6.5547 25.0967Z" fill="white"/>
</svg>
