<svg width="112" height="46" viewBox="0 0 112 46" fill="none" xmlns="http://www.w3.org/2000/svg">
<path fill-rule="evenodd" clip-rule="evenodd" d="M0 22.6771L2.93749 19.7396L5.87514 22.6771L2.93749 25.6146L0 22.6771Z" fill="white"/>
<path fill-rule="evenodd" clip-rule="evenodd" d="M12.4471 23.3889L14.6717 25.6137L17.5931 22.6921L14.5914 19.6902C13.3851 18.4841 11.4286 18.4841 10.2225 19.6902L0.0107422 29.9554L2.95913 32.9038L12.4471 23.3889Z" fill="white"/>
<path fill-rule="evenodd" clip-rule="evenodd" d="M11.7502 35.825L8.8288 32.9036L6.60419 35.1282L4.37957 32.9036L1.45801 35.825L4.46004 38.8268C5.66599 40.0331 7.62252 40.0331 8.8288 38.8268L11.7502 35.825Z" fill="white"/>
<path fill-rule="evenodd" clip-rule="evenodd" d="M12.4469 40.9979L10.2223 38.7733L7.3009 41.6947L10.3028 44.6967C11.5089 45.9027 13.4654 45.9027 14.6715 44.6967L17.6734 41.6947L14.752 38.7733L12.4469 40.9979Z" fill="white"/>
<path fill-rule="evenodd" clip-rule="evenodd" d="M18.3168 35.1282L16.0921 32.9036L13.1439 35.825L16.1458 38.827C17.3519 40.0331 19.3084 40.0331 20.5145 38.827L23.5164 35.825L20.5949 32.9036L18.3168 35.1282Z" fill="white"/>
<path fill-rule="evenodd" clip-rule="evenodd" d="M19.0114 29.9772L21.9488 27.0397L24.8865 29.9772L21.9488 32.9147L19.0114 29.9772Z" fill="white"/>
<path fill-rule="evenodd" clip-rule="evenodd" d="M12.4469 29.2585L10.2223 27.0338L7.3009 29.9552L10.3028 32.9573C11.5089 34.1634 13.4654 34.1634 14.6715 32.9573L24.9369 22.6919L22.0153 19.7705L12.4469 29.2585Z" fill="white"/>
<path fill-rule="evenodd" clip-rule="evenodd" d="M8.53564 3.90352L12.4408 0L16.3444 3.90519L12.4392 7.80871L8.53564 3.90352Z" fill="white"/>
<path fill-rule="evenodd" clip-rule="evenodd" d="M7.56903 12.8287H10.3833V18.3768C11.6697 17.6263 13.251 17.6263 14.5376 18.3768V12.8287H17.3519L19.2011 14.6781L23.1144 10.7649L19.2011 6.85181L17.3519 8.70104H7.59585L5.74645 6.85181L1.83337 10.7649L5.74645 14.6781L7.56903 12.8287Z" fill="white"/>
<path fill-rule="evenodd" clip-rule="evenodd" d="M62.625 12.5519H69.8843V39.9727H77.2906V12.5519H84.5205V5.96851H62.625V12.5519Z" fill="white"/>
<path fill-rule="evenodd" clip-rule="evenodd" d="M48.6941 29.4806C48.6941 32.2138 47.0778 33.9479 44.5502 33.9479C41.9639 33.9479 40.4062 32.2432 40.4062 29.4806V5.96863H33V29.5687C33 36.2991 37.6729 40.5017 44.5502 40.5017C51.4275 40.5017 56.1004 36.2991 56.1004 29.5687V5.96863H48.6941V29.4806Z" fill="white"/>
<path fill-rule="evenodd" clip-rule="evenodd" d="M103.712 19.7818L99.4799 18.1655C97.1581 17.2838 96.7467 15.7847 96.7467 14.7856C96.7467 12.9339 98.0987 11.5233 100.479 11.5233C102.801 11.5233 104.359 13.081 104.359 15.5202V16.4607H111.295V15.6967C111.295 9.37788 106.945 5.43945 100.479 5.43945C93.6902 5.43945 89.7519 10.1125 89.7519 15.2852C89.7519 20.2521 92.3382 23.2204 97.2464 25.072L102.007 26.8943C104.124 27.7171 104.947 28.8632 104.947 30.5679C104.947 32.9485 103.389 34.3593 100.597 34.3593C97.8047 34.3593 96.1001 33.0662 96.1001 30.3328V29.0985H89.1053V30.3034C89.1053 36.6224 93.9839 40.5604 100.597 40.5604C107.856 40.5604 112 36.1519 112 29.892C112 23.5732 107.944 21.3983 103.712 19.7818Z" fill="white"/>
</svg>
