<svg width="72" height="72" viewBox="0 0 72 72" fill="none" xmlns="http://www.w3.org/2000/svg">
<circle cx="36" cy="36" r="36" fill="#1E3D78"/>
<path fill-rule="evenodd" clip-rule="evenodd" d="M48.8193 21C45.4672 21 42.5381 22.8117 40.958 25.5093C39.162 24.294 36.9959 23.5841 34.664 23.5841C30.2756 23.5841 26.4743 26.0981 24.6219 29.7645C19.2485 30.1192 15 34.5899 15 40.053C15 45.704 19.5458 50.2932 25.1801 50.3635V50.3643H45.9083V50.3637C45.9231 50.3639 45.938 50.364 45.9529 50.3641C45.9724 50.3643 45.9918 50.3643 46.0113 50.3643C50.6151 50.3643 54.3471 46.6323 54.3471 42.0285C54.3471 40.5753 53.9752 39.2089 53.3214 38.0193C56.0703 36.4524 57.9236 33.4948 57.9236 30.1043C57.9236 25.0761 53.8475 21 48.8193 21ZM50.7375 35.1611C52.7768 34.3872 54.2263 32.415 54.2263 30.1043C54.2263 27.1181 51.8055 24.6974 48.8194 24.6974C46.5002 24.6974 44.5221 26.1575 43.7541 28.2086C43.3489 27.6532 42.8941 27.1364 42.3961 26.6646C44.3015 28.4698 45.5754 30.9351 45.8517 33.6943C45.9048 33.6933 45.958 33.6928 46.0113 33.6928C47.7662 33.6928 49.3943 34.235 50.7375 35.1611ZM42.0413 36.9219C42.1743 36.3283 42.2447 35.7089 42.2447 35.072C42.2447 30.6769 38.8914 27.114 34.7548 27.114C31.0548 27.114 27.9815 29.9645 27.374 33.7114C26.7111 33.495 26.0034 33.378 25.2683 33.378C21.5241 33.378 18.4889 36.4133 18.4889 40.1574C18.4889 43.9016 21.5241 46.9369 25.2683 46.9369L25.3279 46.9366V46.937H45.0402C45.1877 46.95 45.337 46.9567 45.4879 46.9567C48.2589 46.9567 50.5053 44.7103 50.5053 41.9393C50.5053 39.1683 48.2589 36.9219 45.4879 36.9219C45.4508 36.9219 45.4138 36.9223 45.3769 36.9231V36.9219H42.0413Z" fill="white"/>
</svg>
